<?xml version="1.0" encoding="utf-8"?>
<!-- Generator: Adobe Illustrator 21.0.0, SVG Export Plug-In . SVG Version: 6.00 Build 0)  -->
<svg version="1.1" id="Calque_2" xmlns="http://www.w3.org/2000/svg" xmlns:xlink="http://www.w3.org/1999/xlink" x="0px" y="0px"
	 viewBox="0 0 500 500" style="enable-background:new 0 0 500 500;" xml:space="preserve">
<style type="text/css">
	.st0{fill:url(#XMLID_3_);}
	.st1{opacity:0.7;fill:url(#SVGID_1_);}
	.st2{opacity:0.8;fill:url(#SVGID_2_);}
	.st3{opacity:0.5;fill:url(#SVGID_3_);}
</style>
<g>
	<linearGradient id="XMLID_3_" gradientUnits="userSpaceOnUse" x1="87.3714" y1="234.3267" x2="399.1113" y2="234.3267">
		<stop  offset="0" style="stop-color:#ADD100"/>
		<stop  offset="1" style="stop-color:#62B319"/>
	</linearGradient>
	<path id="XMLID_1_" class="st0" d="M338.3,322.4l66.1-96.3h-63l-42.9,60.4l-43.8-38.9l-5.9-5.1c-47.9-41.7-67.3-59.6-67.3-83.7
		c0-22.2,16-37.1,39.7-37.1c23.6,0,38.3,13.8,41.6,38.9l1.5,11.7h56.1l-1.6-14.8c-5.8-54.3-43.9-89.3-97.1-89.3
		c-56.6,0-97.6,37.8-97.6,89.9c0,20.1,6.1,37.4,20.7,56.7c-33.8,19.1-53.5,50.5-53.5,86.7c0,58.5,48,99.4,116.6,99.4
		c37.3,0,68.9-12.1,96.3-37l35.5,31.4h80L338.3,322.4z M208.3,347.5c-36.1,0-61.3-19.2-61.3-46.6c0-11.7,4.8-32.5,35-46.5
		c5.7,5.4,11.8,10.9,18.3,16.6c3.7,3.3,7.6,6.8,11.7,10.5l52,46.3C247.6,340.9,229,347.5,208.3,347.5z"/>
	<linearGradient id="SVGID_1_" gradientUnits="userSpaceOnUse" x1="320.7216" y1="300.9246" x2="364.9335" y2="238.0045">
		<stop  offset="0" style="stop-color:#5FAA23"/>
		<stop  offset="1" style="stop-color:#5FAA23;stop-opacity:0"/>
	</linearGradient>
	<polygon class="st1" points="404.4,226.1 341.3,226.1 298.5,286.5 338,322.4 	"/>
	<linearGradient id="SVGID_2_" gradientUnits="userSpaceOnUse" x1="285.2496" y1="337.3148" x2="231.6261" y2="373.0527">
		<stop  offset="0" style="stop-color:#5FAA23"/>
		<stop  offset="1" style="stop-color:#5FAA23;stop-opacity:0"/>
	</linearGradient>
	<path class="st2" d="M263.9,327.8c-16.2,13-35,19.6-55.6,19.7l30.2,50.2c24.3-5,46-16.3,65.6-34"/>
	<linearGradient id="SVGID_3_" gradientUnits="userSpaceOnUse" x1="159.0998" y1="224.0342" x2="123.3707" y2="290.3904">
		<stop  offset="0" style="stop-color:#5FAA23"/>
		<stop  offset="1" style="stop-color:#5FAA23;stop-opacity:0"/>
	</linearGradient>
	<path class="st3" d="M147,301c0-11.7,4.7-32.6,35-46.6l-37.3-39.9c-24.4,13.8-41.4,34.1-49.1,57.9l52,36
		C147.2,306,147,303.5,147,301z"/>
</g>
</svg>
